<?xml version="1.0" encoding="UTF-8"?>
<svg version="1.1" xmlns="http://www.w3.org/2000/svg" width="1435" height="1144">
<path d="M0 0 C473.55 0 947.1 0 1435 0 C1435 377.52 1435 755.04 1435 1144 C961.45 1144 487.9 1144 0 1144 C0 766.48 0 388.96 0 0 Z " fill="#47C2FE" transform="translate(0,0)"/>
<path d="M0 0 C294.44348708 0 294.44348708 0 318.375 3.875 C319.46820557 4.0500708 320.56141113 4.2251416 321.68774414 4.40551758 C369.68597146 12.29364777 415.18624658 33.53486533 453 64 C453.95003906 64.74507813 454.90007812 65.49015625 455.87890625 66.2578125 C472.17405349 79.47239084 487.73920401 94.96654517 500 112 C500.89804454 113.18456983 501.79920006 114.36678629 502.703125 115.546875 C538.33808207 162.43661728 555.87107885 218.06054082 562 276 C562.08702682 276.77002853 562.17405365 277.54005707 562.26371765 278.3334198 C562.88084212 284.02421188 563.15918736 289.63316108 563.16796875 295.35546875 C563.17438889 296.63908043 563.17438889 296.63908043 563.18093872 297.94862366 C563.19085956 300.6949701 563.19100286 303.44113916 563.1875 306.1875 C563.18656342 307.12984497 563.18562683 308.07218994 563.18466187 309.04309082 C563.07235853 361.10536945 552.32554974 411.85275589 527.97509766 458.14404297 C526.99585373 460.00789183 526.03425599 461.88010449 525.07421875 463.75390625 C514.25091175 484.68896279 500.57269437 503.35094638 485 521 C484.53271484 521.53044922 484.06542969 522.06089844 483.58398438 522.60742188 C471.90358464 535.77355581 459.11482134 547.49164141 445 558 C444.36255859 558.47791992 443.72511719 558.95583984 443.06835938 559.44824219 C420.60771146 576.16698747 395.28200282 589.3722356 369 599 C367.87722656 599.41507813 366.75445313 599.83015625 365.59765625 600.2578125 C349.78337484 605.81465392 333.42439768 609.6691754 316.875 612.25 C315.91295654 612.40090088 314.95091309 612.55180176 313.9597168 612.70727539 C210.39910693 627.83027683 104.65899431 616 0 616 C0 412.72 0 209.44 0 0 Z " fill="#FEFEFE" transform="translate(191,291)"/>
<path d="M0 0 C157.42750929 0 157.42750929 0 188 8 C188.67289063 8.17080078 189.34578125 8.34160156 190.0390625 8.51757812 C220.99574838 16.49216165 248.46257288 31.49325287 272 53 C272.81984375 53.74765625 273.6396875 54.4953125 274.484375 55.265625 C313.15836258 92.29391098 330.00176117 150.03954834 331.26480103 202.24464417 C331.3257556 206.33017738 331.33015473 210.41411989 331.3125 214.5 C331.31100952 215.36341003 331.30951904 216.22682007 331.3079834 217.11639404 C331.26136565 232.24733339 330.32290747 247.02878771 328 262 C327.77521973 263.48717529 327.77521973 263.48717529 327.54589844 265.00439453 C325.68188773 277.03339784 323.08888461 288.53732543 319 300 C318.7323584 300.77601563 318.4647168 301.55203125 318.18896484 302.3515625 C305.22004754 339.72782107 283.01433644 372.46963429 251 396 C250.43216797 396.41749512 249.86433594 396.83499023 249.27929688 397.26513672 C176.26540044 450.09752274 85.82027006 436 0 436 C0 292.12 0 148.24 0 0 Z " fill="#47C2FE" transform="translate(306,381)"/>
<path d="M0 0 C38.28 0 76.56 0 116 0 C116 173.58 116 347.16 116 526 C222.59 526 329.18 526 439 526 C439 555.7 439 585.4 439 616 C294.13 616 149.26 616 0 616 C0 412.72 0 209.44 0 0 Z " fill="#FEFEFE" transform="translate(837,291)"/>
<path d="M0 0 C13.86 0 27.72 0 42 0 C39.10194652 1.44902674 36.89735285 2.3800977 33.875 3.25 C21.58657498 7.3057856 12.59094844 15.31327768 6.24609375 26.47265625 C4.71828041 29.57138739 3.59524493 32.67549519 2.640625 35.9921875 C2 38 2 38 0 42 C0 28.14 0 14.28 0 0 Z " fill="#FBFDFE" transform="translate(0,0)"/>
<path d="M0 0 C0.33 0 0.66 0 1 0 C1.14695313 0.73863281 1.29390625 1.47726562 1.4453125 2.23828125 C4.71742909 17.03802697 11.73183396 27.55468935 24.41796875 35.94140625 C29.5694192 39.09022501 35.14133377 40.6288228 41 42 C41 42.33 41 42.66 41 43 C27.47 43 13.94 43 0 43 C0 28.81 0 14.62 0 0 Z " fill="#FBFDFE" transform="translate(0,1101)"/>
<path d="M0 0 C14.19 0 28.38 0 43 0 C43 13.2 43 26.4 43 40 C42.67 40 42.34 40 42 40 C41.85304688 39.39414062 41.70609375 38.78828125 41.5546875 38.1640625 C37.96135826 24.74070616 30.64760681 14.7226052 18.80859375 7.57421875 C12.61517896 4.10280545 7.11364974 1.605417 0 1 C0 0.67 0 0.34 0 0 Z " fill="#FBFDFE" transform="translate(1392,0)"/>
<path d="M0 0 C0.33 0 0.66 0 1 0 C1 12.87 1 25.74 1 39 C-12.53 39 -26.06 39 -40 39 C-36.61311704 37.30655852 -33.43868959 36.10297015 -29.875 34.875 C-18.64312167 30.56860719 -9.73306381 22.77640824 -4.49609375 11.8671875 C-2.84166581 7.95500748 -1.3430514 4.02915419 0 0 Z " fill="#FBFDFE" transform="translate(1434,1105)"/>
</svg>
