<?xml version="1.0" encoding="UTF-8"?>
<svg id="Layer_1" xmlns="http://www.w3.org/2000/svg" viewBox="0 0 773.57 129.93">
  <defs>
    <style>
      .cls-1 {
        font-family: InaiMathi-Bold, InaiMathi;
        font-size: 96.55px;
      }

      .cls-1, .cls-2, .cls-3 {
        fill: #fff;
      }

      .cls-1, .cls-3 {
        font-weight: 700;
      }

      .cls-4 {
        letter-spacing: .24em;
      }

      .cls-5 {
        letter-spacing: .25em;
      }

      .cls-6 {
        letter-spacing: .25em;
      }

      .cls-7 {
        letter-spacing: .25em;
      }

      .cls-8 {
        letter-spacing: .25em;
      }

      .cls-9 {
        letter-spacing: .27em;
      }

      .cls-10 {
        letter-spacing: .26em;
      }

      .cls-11 {
        letter-spacing: .25em;
      }

      .cls-12 {
        letter-spacing: .25em;
      }

      .cls-13 {
        letter-spacing: .25em;
      }

      .cls-14 {
        letter-spacing: .26em;
      }

      .cls-15 {
        letter-spacing: .24em;
      }

      .cls-16 {
        letter-spacing: .25em;
      }

      .cls-17 {
        letter-spacing: .25em;
      }

      .cls-2 {
        stroke: #fff;
        stroke-miterlimit: 10;
      }

      .cls-18 {
        fill: #309dd8;
      }

      .cls-3 {
        font-family: AcuminConcept-Bold, 'Acumin Variable Concept';
        font-size: 26.76px;
        font-variation-settings: 'wght' 700, 'wdth' 100, 'slnt' 0;
      }
    </style>
  </defs>
  <rect class="cls-18" width="155.64" height="124.06" rx="12" ry="12"/>
  <text class="cls-1" transform="translate(16.24 98.38) scale(1.1 1)"><tspan x="0" y="0">DL</tspan></text>
  <text class="cls-3" transform="translate(185.69 122.92) scale(1.01 1)"><tspan class="cls-17" x="0" y="0">TR</tspan><tspan class="cls-11" x="46.83" y="0">U</tspan><tspan class="cls-4" x="72.79" y="0">S</tspan><tspan class="cls-8" x="96.32" y="0">T - </tspan><tspan class="cls-15" x="162.1" y="0">S</tspan><tspan class="cls-14" x="185.44" y="0">E</tspan><tspan class="cls-5" x="208.88" y="0">C</tspan><tspan class="cls-12" x="234.52" y="0">U</tspan><tspan class="cls-13" x="260.7" y="0">R</tspan><tspan class="cls-7" x="285.24" y="0">E - T</tspan><tspan class="cls-9" x="374.25" y="0">R</tspan><tspan class="cls-11" x="399.11" y="0">A</tspan><tspan class="cls-6" x="424.08" y="0">N</tspan><tspan class="cls-15" x="450.87" y="0">S</tspan><tspan class="cls-10" x="474.21" y="0">F</tspan><tspan class="cls-17" x="496.98" y="0">O</tspan><tspan class="cls-16" x="524.15" y="0">R</tspan><tspan class="cls-17" x="548.58" y="0">M</tspan></text>
  <g>
    <path class="cls-2" d="M177.53,7.37h30.02c5.25,0,9.99,1,14.22,3.01,4.23,2.01,7.85,4.73,10.85,8.16,3,3.43,5.3,7.43,6.91,11.99,1.61,4.56,2.42,9.44,2.42,14.62s-.84,10.4-2.53,15-4.05,8.61-7.08,12.04c-3.03,3.43-6.67,6.11-10.9,8.05-4.24,1.93-8.86,2.9-13.88,2.9h-30.02V7.37ZM190.69,72.08h13.71c3.45,0,6.65-.6,9.61-1.81,2.96-1.2,5.53-2.96,7.7-5.26,2.17-2.3,3.86-5.11,5.06-8.43,1.2-3.32,1.8-7.1,1.8-11.33,0-4.6-.6-8.6-1.8-11.99-1.2-3.39-2.89-6.19-5.06-8.38-2.17-2.19-4.74-3.81-7.7-4.87-2.96-1.06-6.17-1.59-9.61-1.59h-13.71v53.65Z"/>
    <path class="cls-2" d="M275.45,7.37v75.77h-13.15V7.37h13.15Z"/>
  </g>
  <polygon class="cls-2" points="547.07 72.32 515.84 72.32 515.84 7.39 501.89 7.39 501.89 83.12 547.07 83.12 547.07 72.32"/>
  <polygon class="cls-2" points="491.83 83.05 476.45 83.76 467.02 61.79 443.38 61.79 447.83 50.54 462.18 50.54 449.7 21.45 426.08 83.05 410.88 83.05 443.38 6.75 459.16 6.75 491.83 83.05"/>
  <polygon class="cls-2" points="634.66 83.05 619.27 83.76 609.84 61.79 586.21 61.79 590.66 50.54 605 50.54 592.52 21.45 568.9 83.05 553.7 83.05 586.21 6.75 601.98 6.75 634.66 83.05"/>
  <path class="cls-2" d="M701.89,50.69c-2.44-3.27-6.03-5.45-10.78-6.53v-.21c2.51-1.04,4.62-2.21,6.33-3.5,1.71-1.22,3.03-2.51,3.94-3.87,1.79-2.85,2.65-5.85,2.57-8.98,0-6.13-2.17-11.06-6.51-14.78-4.3-3.69-10.73-5.57-19.29-5.64h-33.75v76.16h36.7c6.85,0,12.57-2,17.16-6.01,4.62-3.83,6.97-9.04,7.05-15.62,0-3.97-1.14-7.64-3.42-11.02ZM688.7,68.96c-2.27,2.27-5.87,3.44-10.78,3.51h-20.35V17.41h19.07c4.82.07,8.37,1.1,10.64,3.1,2.31,2.13,3.47,4.74,3.47,7.82s-1.16,5.64-3.47,7.67c-2.27,2.21-5.82,3.31-10.64,3.31h-4.12v10.23h5.41c4.91.07,8.5,1.2,10.78,3.4,2.28,2.23,3.41,4.92,3.41,8.07s-1.14,5.73-3.41,7.96Z"/>
  <polygon class="cls-2" points="418.39 5.31 358.95 5.31 358.95 20.87 380.89 20.87 380.89 85.19 396.76 85.19 396.76 20.87 418.39 20.87 418.39 5.31"/>
  <path class="cls-2" d="M715.14,66.9v13.34s18.55,9.99,41.03,2.5c0,0,16.9-3.69,16.9-21.17,0-7.78-2.17-15.22-9.53-18.93-10.49-5.29-36.95,3.03-36.85-14.85.06-10.14,12.42-11.16,20.02-11.13,2.45,0,21.58.03,20.93,3.4,0,0,2.05-10.65,2.05-10.65-18.05-7.13-53.52-8.44-55.46,17.77-.55,7.42,1.01,15.73,7.64,20.11,8.29,5.48,19.32,3.24,28.57,5.38,4.12.95,7.92,3.57,8.22,8.09,1.15,17.18-34.84,12.6-43.53,6.14Z"/>
  <path class="cls-2" d="M348.15,21.7v-10.12c0-1.98-12.27-4.21-13.5-4.4-17.31-2.68-37.73,2.16-44.78,19.61-5.16,12.77-5.64,30.3,1.87,42.3.99,1.59,2.16,2.97,3.44,4.33,9.72,10.21,27.15,11.71,40.38,10.11,1.63-.2,12.59-1.79,12.59-4.18v-11.3c0-.43-.48-.68-.83-.41-15.12,11.61-46.54,3.57-48.78-17.29-3.34-31.13,25.77-36.37,49.61-28.63Z"/>
</svg>